<?xml version="1.0" encoding="utf-8"?>
<!-- Generator: Adobe Illustrator 15.0.0, SVG Export Plug-In  -->
<!DOCTYPE svg PUBLIC "-//W3C//DTD SVG 1.1//EN" "http://www.w3.org/Graphics/SVG/1.1/DTD/svg11.dtd" [
	<!ENTITY ns_flows "http://ns.adobe.com/Flows/1.0/">
]>
<svg version="1.1"
	 xmlns="http://www.w3.org/2000/svg" xmlns:xlink="http://www.w3.org/1999/xlink" xmlns:a="http://ns.adobe.com/AdobeSVGViewerExtensions/3.0/"
	 x="0px" y="0px" width="73px" height="61px" viewBox="-2.039 -8.308 73 61" enable-background="new -2.039 -8.308 73 61"
	 xml:space="preserve">
<defs>
</defs>
<path id="パス_366_1_" fill="#719519" d="M1.235,43.851C0.553,43.851,0,43.297,0,42.616s0.553-1.234,1.235-1.234h5.524V20.301
	c0.009-0.68,0.568-1.224,1.249-1.215c0.002,0,0.004,0,0.006,0c0.68-0.006,1.238,0.535,1.255,1.215v21.081h5.336v-16.98
	c-0.003-0.324,0.125-0.637,0.356-0.865c0.233-0.233,0.549-0.367,0.879-0.371h7.909c0.332-0.006,0.651,0.129,0.879,0.371
	c0.231,0.229,0.359,0.541,0.356,0.865v16.98h35.007V22.05H36.807c-0.367-0.002-0.717-0.159-0.963-0.432L19.962,3.131L4.08,21.617
	c-0.457,0.509-1.235,0.563-1.758,0.124c-0.517-0.426-0.591-1.19-0.167-1.709L18.748,0.721c0.208-0.436,0.646-0.715,1.13-0.721
	h30.759c0.367,0.002,0.717,0.159,0.963,0.432l16.844,19.6c0.445,0.516,0.388,1.294-0.129,1.739
	c-0.225,0.195-0.514,0.301-0.813,0.299H62.48v19.331h4.916c0.332-0.006,0.652,0.129,0.879,0.371c0.475,0.479,0.475,1.25,0,1.729
	c-0.232,0.234-0.549,0.367-0.879,0.371H1.194L1.235,43.851z M17.117,41.297h5.419V25.631h-5.419V41.297z M64.846,19.62L50.115,2.492
	H22.68L37.411,19.62H64.846z M42.289,37.407c-0.332,0.006-0.651-0.129-0.879-0.371c-0.236-0.227-0.373-0.537-0.377-0.865v-8.522
	c-0.005-0.329,0.133-0.645,0.377-0.865c0.232-0.233,0.549-0.366,0.879-0.37h10.943c0.332-0.006,0.652,0.129,0.879,0.37
	c0.231,0.229,0.359,0.54,0.357,0.865v8.522c0.002,0.325-0.126,0.637-0.357,0.865c-0.232,0.234-0.549,0.367-0.879,0.371H42.289z
	 M43.545,34.937h8.436v-6.073h-8.433L43.545,34.937z M40.154,15.437c-0.682,0-1.234-0.553-1.234-1.235
	c0-0.683,0.553-1.235,1.234-1.235l0,0h15.234c0.327-0.003,0.643,0.122,0.879,0.35c0.473,0.479,0.473,1.25,0,1.729
	c-0.236,0.228-0.552,0.354-0.879,0.35H40.154V15.437z M34.233,8.973c-0.328,0.004-0.644-0.122-0.879-0.35
	c-0.236-0.227-0.372-0.538-0.377-0.865c-0.005-0.329,0.133-0.644,0.377-0.865c0.235-0.228,0.551-0.354,0.879-0.35h15.233
	c0.683,0,1.235,0.553,1.235,1.235s-0.553,1.235-1.235,1.235H34.233V8.973z"/>
</svg>
