<?xml version="1.0" encoding="utf-8"?>
<!-- Generator: Adobe Illustrator 15.0.0, SVG Export Plug-In  -->
<!DOCTYPE svg PUBLIC "-//W3C//DTD SVG 1.1//EN" "http://www.w3.org/Graphics/SVG/1.1/DTD/svg11.dtd" [
	<!ENTITY ns_flows "http://ns.adobe.com/Flows/1.0/">
]>
<svg version="1.1"
	 xmlns="http://www.w3.org/2000/svg" xmlns:xlink="http://www.w3.org/1999/xlink" xmlns:a="http://ns.adobe.com/AdobeSVGViewerExtensions/3.0/"
	 x="0px" y="0px" width="73px" height="61px" viewBox="-3.986 -14.646 73 61" enable-background="new -3.986 -14.646 73 61"
	 xml:space="preserve">
<defs>
</defs>
<path fill="#72951A" d="M64.961,30.505l-8-18.59c-0.137-0.317-0.447-0.522-0.793-0.522H33.439V9.689h1.211V7.963h-1.211V5.662h1.211
	V3.936h-1.211V1.194L32.509,0l-0.93,1.194v2.742h-3.386V1.194L27.264,0l-0.929,1.194v2.742h-3.387V1.194L22.019,0l-0.93,1.194v2.742
	h-3.386V1.194L16.774,0l-0.929,1.194v2.742h-3.387V1.194L11.529,0L10.6,1.194v2.742H9.527v1.726H10.6v2.301H9.527v1.726H10.6v1.704
	H8.864c-0.345,0-0.657,0.205-0.793,0.522l-8,18.59c-0.115,0.268-0.088,0.572,0.072,0.815s0.43,0.389,0.721,0.389h63.305
	c0.292,0,0.562-0.146,0.721-0.389C65.05,31.077,65.076,30.772,64.961,30.505z M12.458,7.963V5.662h3.387v2.301H12.458z
	 M12.458,11.393V9.689h3.387v1.704H12.458z M17.704,7.963V5.662h3.386v2.301H17.704z M17.704,11.393V9.689h3.386v1.704H17.704z
	 M22.948,7.963V5.662h3.387v2.301H22.948z M22.948,11.393V9.689h3.387v1.704H22.948z M28.194,7.963V5.662h3.386v2.301H28.194z
	 M28.194,11.393V9.689h3.386v1.704H28.194z M62.857,29.983H2.174l7.257-16.865H55.6L62.857,29.983z"/>
<path fill="#72951A" d="M18.225,23.645h-4.361c-0.476,0-0.863,0.388-0.863,0.862c0,0.477,0.387,0.863,0.863,0.863h4.361
	c0.476,0,0.863-0.387,0.863-0.863C19.088,24.032,18.701,23.645,18.225,23.645z"/>
<path fill="#72951A" d="M21.406,24.187l-0.004-0.01c-0.022-0.053-0.047-0.095-0.069-0.132l-0.011-0.019
	c-0.035-0.05-0.071-0.094-0.106-0.129c-0.156-0.154-0.378-0.244-0.61-0.244c-0.231,0-0.454,0.089-0.612,0.244
	c-0.035,0.035-0.071,0.078-0.105,0.129l-0.006,0.01c-0.022,0.035-0.052,0.084-0.076,0.144l-0.003,0.007
	c-0.015,0.043-0.034,0.096-0.046,0.16l-0.002,0.013c-0.007,0.044-0.015,0.093-0.015,0.147c0,0.227,0.092,0.449,0.253,0.609
	c0.164,0.164,0.38,0.254,0.609,0.254c0.232,0,0.45-0.09,0.613-0.254c0.161-0.16,0.253-0.383,0.253-0.609
	c0-0.063-0.006-0.118-0.019-0.17C21.438,24.278,21.42,24.228,21.406,24.187z"/>
<path fill="#72951A" d="M34.389,18.141h-4.36c-0.476,0-0.863,0.388-0.863,0.863s0.387,0.862,0.863,0.862h4.36
	c0.477,0,0.863-0.387,0.863-0.862S34.865,18.141,34.389,18.141z"/>
<path fill="#72951A" d="M37.57,18.681l-0.006-0.015c-0.02-0.042-0.043-0.087-0.071-0.134l-0.009-0.014
	c-0.032-0.047-0.068-0.086-0.098-0.119l-0.015-0.015c-0.03-0.028-0.073-0.065-0.122-0.099l-0.01-0.007
	c-0.046-0.028-0.092-0.052-0.135-0.072l-0.014-0.005c-0.042-0.016-0.098-0.035-0.159-0.046c-0.054-0.011-0.11-0.017-0.165-0.017
	c-0.228,0-0.45,0.092-0.609,0.252l-0.01,0.01c-0.029,0.033-0.063,0.072-0.096,0.117l-0.007,0.011
	c-0.028,0.048-0.054,0.095-0.073,0.14l-0.005,0.012c-0.015,0.04-0.033,0.094-0.044,0.152c-0.016,0.063-0.02,0.127-0.02,0.172
	c0,0.221,0.092,0.442,0.254,0.609c0.16,0.16,0.383,0.252,0.609,0.252c0.047,0,0.102-0.006,0.162-0.017
	c0.059-0.01,0.111-0.028,0.16-0.046l0.016-0.006c0.043-0.02,0.089-0.043,0.135-0.072l0.011-0.006c0.046-0.031,0.083-0.064,0.121-0.1
	l0.01-0.008c0.159-0.165,0.251-0.387,0.251-0.607c0-0.066-0.006-0.123-0.02-0.172C37.604,18.774,37.585,18.722,37.57,18.681z"/>
<path fill="#72951A" d="M50.554,23.645h-4.36c-0.476,0-0.863,0.388-0.863,0.862c0,0.477,0.388,0.863,0.863,0.863h4.36
	c0.476,0,0.864-0.387,0.864-0.863C51.418,24.032,51.029,23.645,50.554,23.645z"/>
<path fill="#72951A" d="M53.734,24.187l-0.006-0.015c-0.018-0.04-0.041-0.083-0.07-0.134l-0.008-0.013
	c-0.035-0.05-0.071-0.093-0.105-0.128c-0.047-0.047-0.092-0.079-0.128-0.105c-0.05-0.034-0.103-0.063-0.155-0.082
	c-0.054-0.023-0.107-0.037-0.152-0.049l-0.014-0.003c-0.053-0.009-0.107-0.014-0.162-0.014s-0.11,0.005-0.164,0.014l-0.031,0.007
	c-0.037,0.011-0.086,0.023-0.133,0.045c-0.052,0.02-0.104,0.047-0.157,0.084c-0.039,0.027-0.081,0.06-0.126,0.104
	c-0.035,0.035-0.07,0.078-0.105,0.128l-0.008,0.013c-0.02,0.033-0.049,0.082-0.072,0.135l-0.004,0.012
	c-0.018,0.049-0.035,0.097-0.045,0.152c-0.012,0.053-0.018,0.108-0.018,0.17c0,0.227,0.092,0.449,0.252,0.609
	c0.161,0.16,0.383,0.253,0.609,0.253c0.041,0,0.104-0.003,0.166-0.015l0.024-0.006c0.043-0.01,0.091-0.023,0.142-0.045
	c0.053-0.02,0.105-0.049,0.153-0.082c0.034-0.024,0.08-0.059,0.128-0.105c0.16-0.16,0.252-0.383,0.252-0.609
	c0-0.06-0.008-0.113-0.017-0.161C53.771,24.283,53.751,24.229,53.734,24.187z"/>
</svg>
