<?xml version="1.0" encoding="utf-8"?>
<!-- Generator: Adobe Illustrator 15.0.0, SVG Export Plug-In  -->
<!DOCTYPE svg PUBLIC "-//W3C//DTD SVG 1.1//EN" "http://www.w3.org/Graphics/SVG/1.1/DTD/svg11.dtd" [
	<!ENTITY ns_flows "http://ns.adobe.com/Flows/1.0/">
]>
<svg version="1.1"
	 xmlns="http://www.w3.org/2000/svg" xmlns:xlink="http://www.w3.org/1999/xlink" xmlns:a="http://ns.adobe.com/AdobeSVGViewerExtensions/3.0/"
	 x="0px" y="0px" width="73px" height="61px" viewBox="-7.857 -8.814 73 61" enable-background="new -7.857 -8.814 73 61"
	 xml:space="preserve">
<defs>
</defs>
<path fill="#719519" d="M56.393,40.717H2.504V1.252c0-0.005,0-0.011,0-0.016C2.5,0.549,1.939-0.004,1.252,0C1.247,0,1.241,0,1.236,0
	C0.549,0.004-0.004,0.565,0,1.252v40.694c-0.005,0.332,0.125,0.654,0.361,0.891c0.242,0.226,0.56,0.354,0.891,0.361l0.025,0.023
	h55.116c0.006,0,0.012,0,0.018,0c0.688-0.006,1.239-0.566,1.234-1.252c0-0.006,0-0.011,0-0.016
	C57.641,41.266,57.081,40.713,56.393,40.717z"/>
<path fill="#719519" d="M7.633,36.549l0.025,0.052c0.188,0.114,0.405,0.173,0.626,0.169c0.444-0.01,0.854-0.246,1.084-0.626
	l5.49-9.366l5.562,6.116c0.272,0.292,0.663,0.442,1.06,0.409c0.389-0.043,0.736-0.265,0.939-0.6l8.259-13.87l7.97,8.259
	c0.253,0.288,0.632,0.432,1.011,0.386c0.373-0.038,0.709-0.242,0.916-0.555L53.215,7.396c0.001-0.002,0.002-0.004,0.004-0.006
	c0.376-0.578,0.213-1.352-0.365-1.729c-0.002-0.001-0.005-0.003-0.008-0.005c-0.577-0.375-1.35-0.212-1.727,0.366l-11.774,18.2
	l-8.019-8.307c-0.262-0.289-0.648-0.433-1.035-0.385c-0.39,0.043-0.736,0.265-0.939,0.6l-8.235,13.845l-5.562-6.14
	c-0.269-0.295-0.661-0.447-1.059-0.409c-0.393,0.034-0.743,0.258-0.939,0.601L7.2,34.838c-0.008,0.014-0.015,0.025-0.022,0.037
	C6.842,35.463,7.045,36.213,7.633,36.549z"/>
<polygon fill="#719519" points="11.076,18.49 35.661,5.632 36.624,7.486 41.704,1.394 33.782,2.068 34.769,3.922 10.185,16.78 "/>
</svg>
