<?xml version="1.0" encoding="utf-8"?>
<!-- Generator: Adobe Illustrator 15.0.0, SVG Export Plug-In  -->
<!DOCTYPE svg PUBLIC "-//W3C//DTD SVG 1.1//EN" "http://www.w3.org/Graphics/SVG/1.1/DTD/svg11.dtd" [
	<!ENTITY ns_flows "http://ns.adobe.com/Flows/1.0/">
]>
<svg version="1.1"
	 xmlns="http://www.w3.org/2000/svg" xmlns:xlink="http://www.w3.org/1999/xlink" xmlns:a="http://ns.adobe.com/AdobeSVGViewerExtensions/3.0/"
	 x="0px" y="0px" width="73px" height="61px" viewBox="-5.147 -5.469 73 61" enable-background="new -5.147 -5.469 73 61"
	 xml:space="preserve">
<defs>
</defs>
<path id="パス_367_1_" fill="#719519" d="M1.152,49.75C0.521,49.754,0.007,49.246,0,48.616c0.007-0.63,0.521-1.138,1.152-1.134
	h7.106v-38.3c0.003-0.527,0.369-0.983,0.883-1.1l33.453-8.049c0.039,0.003,0.079-0.003,0.114-0.019l0,0
	c0.23-0.038,0.467,0.001,0.672,0.113h0.039l10.332,5.574c0.364,0.193,0.594,0.57,0.6,0.982v40.774h7.566
	c0.63-0.002,1.145,0.504,1.151,1.135c-0.007,0.63-0.521,1.137-1.151,1.133H1.156L1.152,49.75z M52.042,47.502V7.39L44,3.043v44.438
	h8.047L52.042,47.502z M41.71,47.502V2.591l-31.168,7.5v37.411H41.71z M12.674,42.268c-0.006-0.299,0.104-0.59,0.307-0.812
	c0.212-0.22,0.502-0.349,0.807-0.358l1.152-0.039c0.303-0.007,0.598,0.1,0.826,0.301c0.222,0.205,0.354,0.491,0.365,0.794
	c0.007,0.3-0.103,0.592-0.307,0.813c-0.212,0.219-0.501,0.348-0.806,0.358l-1.152,0.038h-0.039c-0.619,0.008-1.131-0.48-1.152-1.1
	L12.674,42.268z M18.416,42.079c-0.006-0.3,0.104-0.591,0.307-0.812c0.212-0.221,0.501-0.35,0.807-0.359l1.152-0.038
	c0.304-0.011,0.6,0.097,0.826,0.3c0.229,0.201,0.362,0.49,0.365,0.795c0.01,0.301-0.101,0.592-0.307,0.812
	c-0.212,0.22-0.501,0.349-0.807,0.358l-1.152,0.039h-0.038c-0.613-0.007-1.117-0.488-1.152-1.101L18.416,42.079z M24.139,41.891
	c-0.015-0.631,0.483-1.154,1.114-1.172l1.152-0.037c0.303-0.008,0.598,0.099,0.826,0.299c0.229,0.201,0.362,0.49,0.365,0.795
	c0.006,0.3-0.104,0.591-0.307,0.813c-0.212,0.219-0.501,0.348-0.807,0.358l-1.152,0.038h-0.038c-0.619,0.007-1.13-0.481-1.152-1.1
	l0,0L24.139,41.891z M29.862,41.682c-0.006-0.3,0.104-0.59,0.307-0.812c0.212-0.22,0.502-0.349,0.807-0.358l1.152-0.039
	c0.632-0.023,1.164,0.469,1.191,1.101c0.014,0.63-0.484,1.154-1.115,1.172l-1.151,0.038h-0.038c-0.617,0-1.124-0.484-1.152-1.1
	L29.862,41.682z M35.604,41.493c-0.007-0.3,0.104-0.591,0.308-0.812c0.212-0.221,0.501-0.35,0.807-0.359h0.787
	c0.3-0.029,0.599,0.066,0.826,0.266c0.229,0.199,0.361,0.488,0.365,0.793c0.006,0.3-0.104,0.592-0.308,0.813
	c-0.212,0.22-0.501,0.349-0.808,0.359h-0.787c0,0.019-0.037,0.019-0.037,0.019c-0.617,0.001-1.125-0.484-1.152-1.101l0,0
	L35.604,41.493z M12.694,34.729c-0.021-0.295,0.076-0.587,0.269-0.813c0.203-0.227,0.484-0.369,0.787-0.4l1.133-0.094
	c0.619-0.06,1.168,0.395,1.227,1.012c0.001,0.01,0.001,0.018,0.002,0.027c0.051,0.615-0.407,1.154-1.022,1.206
	c-0.011,0.001-0.023,0.001-0.034,0.003l-1.133,0.094h-0.1c-0.592,0.005-1.087-0.449-1.133-1.039L12.694,34.729z M18.394,34.295
	c-0.02-0.297,0.077-0.588,0.269-0.813c0.203-0.228,0.484-0.37,0.787-0.4l1.152-0.094c0.619-0.059,1.168,0.395,1.227,1.013
	c0,0.009,0.001,0.018,0.002,0.026c0.044,0.623-0.425,1.164-1.048,1.209c-0.003,0-0.005,0-0.008,0l-1.133,0.094h-0.1
	c-0.592,0.005-1.087-0.449-1.133-1.039H18.39L18.394,34.295z M24.117,33.86c-0.021-0.296,0.076-0.588,0.269-0.813
	c0.203-0.227,0.484-0.369,0.787-0.4l1.152-0.094c0.618-0.06,1.167,0.395,1.227,1.012c0.001,0.01,0.002,0.018,0.002,0.027
	c0.051,0.615-0.406,1.154-1.022,1.206c-0.011,0.001-0.022,0.001-0.034,0.003l-1.152,0.094h-0.1
	c-0.592,0.006-1.087-0.448-1.133-1.039L24.117,33.86z M29.817,33.426c-0.02-0.297,0.077-0.588,0.269-0.813
	c0.203-0.228,0.484-0.37,0.787-0.399l1.152-0.095c0.619-0.06,1.168,0.395,1.227,1.013c0.002,0.009,0.002,0.018,0.002,0.026
	c0.052,0.615-0.406,1.155-1.021,1.206c-0.011,0.002-0.022,0.002-0.033,0.003l-1.153,0.094h-0.1
	c-0.592,0.005-1.087-0.448-1.133-1.038L29.817,33.426z M35.541,32.99c-0.021-0.295,0.076-0.587,0.269-0.813
	c0.203-0.227,0.483-0.369,0.787-0.399l0.864-0.058c0.618-0.059,1.168,0.395,1.227,1.014c0.001,0.008,0.002,0.018,0.002,0.025
	c0.051,0.615-0.406,1.156-1.021,1.207c-0.012,0.001-0.023,0.002-0.034,0.002l-0.864,0.057h-0.1
	c-0.592,0.006-1.087-0.448-1.133-1.038L35.541,32.99z M12.687,28.096c-0.043-0.297,0.04-0.598,0.23-0.83
	c0.183-0.238,0.452-0.395,0.749-0.436l1.133-0.15c0.621-0.085,1.194,0.344,1.287,0.963c0.079,0.621-0.359,1.187-0.979,1.267
	l-1.133,0.151H13.82c-0.571,0.004-1.057-0.416-1.133-0.982l0,0V28.096z M18.371,27.34c-0.043-0.297,0.041-0.598,0.231-0.83
	c0.183-0.238,0.452-0.395,0.749-0.436l1.133-0.15c0.62-0.084,1.193,0.344,1.287,0.963c0.078,0.621-0.36,1.187-0.98,1.267
	l-1.133,0.151h-0.154c-0.571,0.004-1.057-0.417-1.133-0.983l0,0V27.34z M24.036,26.604c-0.043-0.297,0.04-0.599,0.23-0.832
	c0.183-0.237,0.452-0.394,0.749-0.434l1.133-0.151c0.621-0.084,1.194,0.345,1.287,0.964c0.078,0.619-0.36,1.186-0.979,1.266
	l-1.133,0.151h-0.154c-0.571,0.005-1.056-0.417-1.133-0.981l0,0V26.604z M29.72,25.848c-0.043-0.297,0.04-0.599,0.23-0.832
	c0.183-0.238,0.452-0.394,0.749-0.435l1.133-0.151c0.304-0.056,0.619,0.02,0.865,0.208c0.242,0.185,0.407,0.455,0.461,0.756
	c0.041,0.303-0.043,0.61-0.23,0.85c-0.188,0.242-0.464,0.399-0.768,0.436l-1.134,0.15h-0.154c-0.571,0.005-1.057-0.416-1.133-0.982
	l0,0H29.72z M35.404,25.091c-0.078-0.62,0.359-1.186,0.979-1.266l1.133-0.151c0.301-0.043,0.606,0.039,0.845,0.227
	c0.24,0.176,0.399,0.442,0.442,0.737c0.044,0.297-0.04,0.599-0.229,0.831c-0.184,0.238-0.453,0.394-0.75,0.435l-1.133,0.15h-0.154
	c-0.57,0.006-1.057-0.416-1.133-0.981l0,0V25.091z M12.686,21.312c-0.114-0.613,0.288-1.204,0.9-1.323l1.133-0.208
	c0.299-0.06,0.61,0.001,0.864,0.17c0.247,0.168,0.418,0.426,0.48,0.718c0.062,0.295-0.001,0.602-0.173,0.85
	c-0.174,0.245-0.436,0.413-0.73,0.472l-1.133,0.208c-0.058,0-0.134,0.019-0.192,0.019h-0.019c-0.545,0.005-1.019-0.374-1.133-0.907
	L12.686,21.312z M18.313,20.254c-0.061-0.295,0.001-0.603,0.173-0.85c0.174-0.245,0.435-0.413,0.729-0.472l1.133-0.208
	c0.299-0.06,0.61,0.001,0.864,0.17c0.247,0.169,0.418,0.426,0.48,0.718c0.062,0.295-0.001,0.602-0.173,0.85
	c-0.174,0.244-0.436,0.413-0.73,0.472l-1.133,0.208c-0.058,0-0.134,0.019-0.192,0.019h-0.019
	C18.901,21.167,18.428,20.787,18.313,20.254z M23.959,19.177c-0.114-0.613,0.288-1.204,0.9-1.323l1.133-0.208
	c0.613-0.111,1.206,0.28,1.344,0.888c0.108,0.612-0.291,1.198-0.9,1.322l-1.133,0.208c-0.058,0-0.135,0.019-0.192,0.019h-0.019
	C24.547,20.088,24.074,19.709,23.959,19.177L23.959,19.177z M29.586,18.119c-0.061-0.295,0.001-0.602,0.173-0.85
	c0.174-0.244,0.436-0.413,0.73-0.472l1.133-0.208c0.615-0.117,1.211,0.276,1.344,0.888c0.113,0.613-0.288,1.203-0.9,1.322
	l-1.133,0.208c-0.058,0-0.134,0.019-0.192,0.019h-0.019c-0.545,0.005-1.019-0.374-1.133-0.907H29.586z M35.212,17.042
	c-0.061-0.295,0.002-0.603,0.174-0.85c0.174-0.245,0.436-0.414,0.73-0.472l1.133-0.208c0.299-0.06,0.609,0.001,0.863,0.17
	c0.247,0.168,0.419,0.426,0.48,0.718c0.061,0.295-0.002,0.602-0.174,0.85c-0.174,0.244-0.435,0.413-0.729,0.472l-1.133,0.208
	c-0.058,0-0.134,0.019-0.192,0.019h-0.019C35.801,17.954,35.328,17.575,35.212,17.042L35.212,17.042z M12.706,14.794
	c-0.061-0.295,0.001-0.603,0.173-0.85c0.175-0.248,0.435-0.423,0.73-0.491l1.133-0.227c0.299-0.06,0.61,0.001,0.864,0.17
	c0.25,0.169,0.429,0.425,0.5,0.718c0.062,0.295-0.001,0.602-0.173,0.85c-0.175,0.248-0.435,0.422-0.73,0.491l-1.114,0.227
	c-0.077,0-0.134,0.019-0.211,0.019h-0.019c-0.541,0.004-1.009-0.376-1.114-0.907H12.706L12.706,14.794z M18.313,13.66
	c-0.061-0.295,0.001-0.602,0.173-0.85c0.174-0.248,0.435-0.422,0.729-0.491l1.133-0.227c0.608-0.133,1.209,0.252,1.342,0.86
	c0.001,0.003,0.001,0.006,0.002,0.009c0.128,0.599-0.253,1.188-0.852,1.316c-0.01,0.002-0.021,0.004-0.031,0.006l-1.133,0.227
	c-0.077,0-0.134,0.019-0.211,0.019h-0.019c-0.541,0.004-1.009-0.376-1.114-0.907l0,0L18.313,13.66z M23.921,12.526
	c-0.061-0.295,0.001-0.603,0.173-0.85c0.175-0.248,0.435-0.422,0.73-0.491l1.114-0.227c0.615-0.13,1.221,0.256,1.363,0.869
	c0.128,0.599-0.253,1.188-0.852,1.317c-0.01,0.002-0.021,0.004-0.031,0.006l-1.133,0.227c-0.077,0-0.134,0.019-0.211,0.019h-0.019
	c-0.541,0.004-1.008-0.376-1.114-0.907l0,0L23.921,12.526z M29.548,11.392c-0.062-0.295,0.001-0.602,0.173-0.85
	c0.175-0.248,0.435-0.423,0.73-0.491l1.114-0.227c0.608-0.133,1.209,0.252,1.343,0.86c0,0.003,0.001,0.006,0.002,0.009
	c0.128,0.599-0.254,1.188-0.853,1.317c-0.011,0.002-0.021,0.004-0.03,0.006l-1.134,0.227c-0.077,0-0.134,0.019-0.211,0.019h-0.019
	c-0.541,0.004-1.008-0.376-1.114-0.907l0,0L29.548,11.392z M35.156,10.258c-0.063-0.295,0-0.602,0.172-0.85
	c0.176-0.248,0.436-0.422,0.73-0.491l1.133-0.227c0.608-0.133,1.209,0.251,1.342,0.86c0.001,0.003,0.002,0.006,0.002,0.009
	c0.129,0.599-0.252,1.188-0.852,1.316c-0.01,0.002-0.021,0.004-0.031,0.006l-1.113,0.227c-0.078,0-0.135,0.019-0.211,0.019h-0.02
	c-0.541,0.004-1.008-0.376-1.113-0.907l0,0L35.156,10.258z"/>
</svg>
