<?xml version="1.0" encoding="utf-8"?>
<!-- Generator: Adobe Illustrator 15.0.0, SVG Export Plug-In  -->
<!DOCTYPE svg PUBLIC "-//W3C//DTD SVG 1.1//EN" "http://www.w3.org/Graphics/SVG/1.1/DTD/svg11.dtd" [
	<!ENTITY ns_flows "http://ns.adobe.com/Flows/1.0/">
]>
<svg version="1.1"
	 xmlns="http://www.w3.org/2000/svg" xmlns:xlink="http://www.w3.org/1999/xlink" xmlns:a="http://ns.adobe.com/AdobeSVGViewerExtensions/3.0/"
	 x="0px" y="0px" width="46px" height="46px" viewBox="-16.738 -12.802 46 46" enable-background="new -16.738 -12.802 46 46"
	 xml:space="preserve">
<defs>
</defs>
<path fill="#FFFFFF" d="M9.112,16.587H4.347c-0.449,0-0.812,0.363-0.812,0.813c0,0.447,0.363,0.811,0.812,0.811h4.765
	c0.449,0,0.813-0.363,0.813-0.811C9.924,16.95,9.561,16.587,9.112,16.587z"/>
<path fill="#FFFFFF" d="M8.765,18.831H4.693c-0.416,0.002-0.752,0.338-0.753,0.754v0.117c0.001,0.416,0.337,0.752,0.753,0.754h0.793
	c0.463,0.687,1.396,0.867,2.083,0.404c0.159-0.107,0.297-0.245,0.404-0.404h0.793c0.416-0.002,0.752-0.338,0.753-0.754v-0.117
	C9.518,19.169,9.18,18.833,8.765,18.831z"/>
<path fill="#FFFFFF" d="M11.495,1.697c-2.773-2.263-6.756-2.263-9.531,0C0.689,2.813-0.029,4.434,0.001,6.129
	c0.066,2.01,0.756,3.95,1.974,5.551c0.789,1.052,1.284,2.294,1.436,3.601c0.033,0.285,0.275,0.5,0.562,0.5h5.512
	c0.287,0,0.529-0.215,0.563-0.5c0.151-1.307,0.646-2.549,1.436-3.601c1.218-1.601,1.908-3.541,1.975-5.551
	C13.488,4.435,12.77,2.813,11.495,1.697z M6.346,14.634c-0.873-1.335-1.414-2.858-1.58-4.444c0-1.185,0.551-1.463,1.058-1.516
	c-0.169,0.262-0.259,0.567-0.26,0.879c-0.02,0.496,0.163,0.979,0.505,1.338v0.006c0.361,0.364,0.949,0.368,1.314,0.007
	c0.002-0.002,0.004-0.005,0.007-0.007c0.342-0.362,0.522-0.847,0.5-1.344C7.889,9.241,7.798,8.936,7.629,8.674
	c0.508,0.053,1.059,0.331,1.059,1.516c-0.166,1.585-0.707,3.109-1.58,4.444H6.346z M6.481,8.967c0.19-0.137,0.457-0.094,0.594,0.098
	c0.107,0.148,0.107,0.348,0,0.497c0.016,0.27-0.072,0.535-0.246,0.74c-0.023,0.024-0.051,0.042-0.082,0.052H6.711
	c-0.03-0.01-0.059-0.028-0.08-0.052c-0.176-0.207-0.266-0.474-0.248-0.745v0.005C6.246,9.371,6.29,9.104,6.481,8.967z
	 M10.559,10.986v0.006c-0.771,1.035-1.303,2.228-1.555,3.494l-0.028,0.148H8.045c0.836-1.343,1.338-2.867,1.463-4.444
	c0-1.491-0.768-2.345-2.106-2.345c-0.433,0.169-0.913,0.169-1.345,0C4.718,7.845,3.95,8.7,3.95,10.19
	c0.125,1.577,0.627,3.101,1.464,4.444H4.483l-0.029-0.148C4.203,13.22,3.672,12.026,2.9,10.992C1.836,9.587,1.227,7.891,1.155,6.131
	C1.121,4.766,1.698,3.457,2.729,2.563c2.337-1.875,5.663-1.875,8,0c1.031,0.895,1.609,2.204,1.574,3.568
	C12.23,7.889,11.622,9.583,10.559,10.986z"/>
</svg>
