<?xml version="1.0" encoding="utf-8"?>
<!-- Generator: Adobe Illustrator 15.0.0, SVG Export Plug-In . SVG Version: 6.00 Build 0)  -->
<!DOCTYPE svg PUBLIC "-//W3C//DTD SVG 1.1//EN" "http://www.w3.org/Graphics/SVG/1.1/DTD/svg11.dtd">
<svg version="1.1" id="レイヤー_1" xmlns="http://www.w3.org/2000/svg" xmlns:xlink="http://www.w3.org/1999/xlink" x="0px"
	 y="0px" width="30px" height="30px" viewBox="0 0 30 30" enable-background="new 0 0 30 30" xml:space="preserve">
<path id="パス_329" fill="#FFFFFF" d="M7.706,4.398c-1.592,1.032-1.9,4.26-1.3,6.89c0.621,2.621,1.683,5.118,3.141,7.383
	c1.487,2.245,3.332,4.23,5.46,5.879c2.156,1.621,5.231,2.652,6.823,1.62c0.816-0.598,1.514-1.344,2.055-2.199l-0.855-1.32
	l-2.354-3.633c-0.175-0.27-1.271-0.023-1.827,0.291c-0.582,0.421-1.072,0.955-1.441,1.571c-0.516,0.3-0.946,0-1.848-0.414
	c-1.107-0.51-2.353-2.093-3.344-3.526c-0.905-1.491-1.843-3.273-1.857-4.493c-0.011-0.992-0.106-1.507,0.376-1.856
	c0.711-0.086,1.398-0.315,2.018-0.674c0.515-0.38,1.187-1.28,1.012-1.549l-2.352-3.629l-0.855-1.322
	C9.553,3.562,8.586,3.895,7.706,4.398z"/>
</svg>
