<?xml version="1.0" encoding="utf-8"?>
<!-- Generator: Adobe Illustrator 15.0.0, SVG Export Plug-In  -->
<!DOCTYPE svg PUBLIC "-//W3C//DTD SVG 1.1//EN" "http://www.w3.org/Graphics/SVG/1.1/DTD/svg11.dtd" [
	<!ENTITY ns_flows "http://ns.adobe.com/Flows/1.0/">
]>
<svg version="1.1"
	 xmlns="http://www.w3.org/2000/svg" xmlns:xlink="http://www.w3.org/1999/xlink" xmlns:a="http://ns.adobe.com/AdobeSVGViewerExtensions/3.0/"
	 x="0px" y="0px" width="32px" height="32px" viewBox="-4.68 -5.443 32 32" enable-background="new -4.68 -5.443 32 32"
	 xml:space="preserve">
<defs>
</defs>
<path id="パス_320_1_" fill="#94C618" d="M20.027,0.083c-0.143-0.093-0.322-0.109-0.479-0.042L8.341,4.855v8.591l11.209,4.815
	c0.257,0.11,0.555-0.01,0.665-0.268c0.026-0.063,0.04-0.13,0.04-0.198V0.506C20.257,0.335,20.17,0.176,20.027,0.083z"/>
<path id="パス_321_1_" fill="#94C618" d="M7.387,4.855h-5.36C0.908,4.854,0,5.761,0,6.88c0,0,0,0.001,0,0.001v4.54
	c0,1.12,0.907,2.027,2.027,2.027h5.36V4.855z"/>
<path id="パス_322_1_" fill="#94C618" d="M21.031,7.481v3.814c1.053-0.182,1.76-1.182,1.579-2.235
	C22.47,8.252,21.838,7.62,21.031,7.481z"/>
<path id="パス_323_1_" fill="#94C618" d="M6.543,14.393H2.92l1.487,6c0.082,0.42,0.449,0.723,0.876,0.723h2.06
	c0.494-0.002,0.894-0.402,0.893-0.896c0-0.084-0.012-0.17-0.037-0.251L6.543,14.393z"/>
</svg>
