<?xml version="1.0" encoding="utf-8"?>
<!-- Generator: Adobe Illustrator 15.0.0, SVG Export Plug-In . SVG Version: 6.00 Build 0)  -->
<!DOCTYPE svg PUBLIC "-//W3C//DTD SVG 1.1//EN" "http://www.w3.org/Graphics/SVG/1.1/DTD/svg11.dtd">
<svg version="1.1" id="レイヤー_1" xmlns="http://www.w3.org/2000/svg" xmlns:xlink="http://www.w3.org/1999/xlink" x="0px"
	 y="0px" width="30px" height="30px" viewBox="0 0 30 30" enable-background="new 0 0 30 30" xml:space="preserve">
<path id="パス_1" fill="#FFFFFF" d="M27.465,13.729c0-5.616-5.632-10.186-12.552-10.186c-6.921,0-12.553,4.57-12.553,10.186
	c0,5.034,4.465,9.253,10.498,10.05c0.408,0.088,0.966,0.27,1.106,0.619c0.097,0.371,0.111,0.758,0.04,1.135
	c0,0-0.147,0.882-0.178,1.073c-0.054,0.318-0.252,1.241,1.086,0.678c3.637-1.915,6.964-4.373,9.862-7.288l0,0
	C26.453,18.337,27.418,16.087,27.465,13.729z"/>
<path id="パス_2" fill="#06C755" d="M23.289,16.972H19.76c-0.132,0-0.24-0.107-0.24-0.239l0,0l0,0l0,0v-5.469l0,0l0,0
	c0-0.133,0.108-0.24,0.24-0.24l0,0h3.529c0.133,0.002,0.239,0.107,0.241,0.24v0.89c0,0.132-0.108,0.239-0.241,0.239l0,0h-2.395
	v0.925h2.395c0.133,0,0.239,0.107,0.241,0.239v0.89c0,0.133-0.108,0.24-0.241,0.24l0,0h-2.395v0.923h2.395
	c0.133,0.002,0.239,0.109,0.241,0.24v0.891C23.524,16.869,23.42,16.972,23.289,16.972z"/>
<path id="パス_3" fill="#06C755" d="M10.245,16.972c0.132,0,0.239-0.107,0.239-0.239l0,0v-0.891c0-0.131-0.107-0.238-0.239-0.239
	H7.849v-4.347c0-0.133-0.107-0.239-0.239-0.24H6.72c-0.132,0-0.24,0.106-0.24,0.24l0,0v5.474l0,0l0,0
	c0,0.131,0.107,0.238,0.24,0.238l0,0h3.53L10.245,16.972z"/>
<path id="長方形_4" fill="#06C755" d="M11.921,11.014L11.921,11.014c0.378,0,0.685,0.307,0.685,0.685v4.589
	c0,0.378-0.306,0.685-0.685,0.685l0,0c-0.378,0-0.685-0.307-0.685-0.685v-4.589C11.236,11.32,11.543,11.014,11.921,11.014z"/>
<path id="パス_4" fill="#06C755" d="M18.428,11.014h-0.891c-0.133,0-0.239,0.107-0.239,0.24l0,0v3.253l-2.506-3.385
	c-0.005-0.008-0.012-0.017-0.018-0.024l0,0l-0.014-0.016l0,0l-0.013-0.011H14.74l-0.013-0.009H14.72l-0.014-0.007h-0.007h-0.015
	h-0.007h-0.014h-0.009h-0.014h-0.93c-0.132,0-0.239,0.107-0.239,0.238l0,0v5.479c0,0.133,0.107,0.24,0.239,0.24l0,0h0.89
	c0.132,0,0.24-0.107,0.24-0.24l0,0v-3.252l2.509,3.388c0.018,0.024,0.039,0.045,0.062,0.061l0,0l0.018,0.009h0.005h0.013h0.01h0.008
	h0.016l0,0c0.021,0.006,0.043,0.01,0.064,0.01h0.882c0.134,0,0.238-0.107,0.238-0.239l0,0v-5.479
	c0.01-0.132-0.091-0.246-0.223-0.255C18.436,11.014,18.432,11.014,18.428,11.014z"/>
</svg>
