<?xml version="1.0" encoding="utf-8"?>
<!-- Generator: Adobe Illustrator 15.0.0, SVG Export Plug-In  -->
<!DOCTYPE svg PUBLIC "-//W3C//DTD SVG 1.1//EN" "http://www.w3.org/Graphics/SVG/1.1/DTD/svg11.dtd" [
	<!ENTITY ns_flows "http://ns.adobe.com/Flows/1.0/">
]>
<svg version="1.1"
	 xmlns="http://www.w3.org/2000/svg" xmlns:xlink="http://www.w3.org/1999/xlink" xmlns:a="http://ns.adobe.com/AdobeSVGViewerExtensions/3.0/"
	 x="0px" y="0px" width="32px" height="32px" viewBox="-1.848 -2.311 32 32" enable-background="new -1.848 -2.311 32 32"
	 xml:space="preserve">
<defs>
</defs>
<path id="パス_30_1_" fill="#94C618" d="M27.774,24.666l-6.078-6.078c3.702-5.419,2.31-12.813-3.109-16.515
	C13.167-1.63,5.773-0.237,2.072,5.182s-2.31,12.813,3.109,16.515c4.45,3.039,10.387,2.704,14.467-0.816l5.956,5.955
	c0.599,0.6,1.57,0.6,2.17,0C28.374,26.238,28.375,25.265,27.774,24.666L27.774,24.666L27.774,24.666z M18.596,19.766
	c-4.33,3.688-10.832,3.169-14.521-1.162c-3.688-4.33-3.168-10.831,1.162-14.52c4.33-3.688,10.831-3.168,14.521,1.162
	c2.965,3.481,3.279,8.501,0.772,12.326c-0.538,0.818-1.189,1.556-1.935,2.191V19.766z"/>
<path id="パス_364_1_" fill="#94C618" d="M4.432,16.684c-0.154-0.001-0.279-0.126-0.279-0.28s0.125-0.279,0.279-0.279h1.232v-4.78
	c0.001-0.153,0.126-0.276,0.279-0.275c0,0,0,0,0.001,0c0.153,0,0.277,0.123,0.28,0.275v4.778h1.19v-3.85
	c-0.002-0.075,0.026-0.147,0.079-0.2c0.053-0.054,0.125-0.084,0.2-0.084h1.759c0.076-0.002,0.149,0.028,0.2,0.084
	c0.052,0.053,0.081,0.125,0.079,0.2v3.85h7.808v-4.377h-5.171c-0.083-0.001-0.161-0.038-0.215-0.1l-3.542-4.19l-3.542,4.19
	c-0.104,0.114-0.282,0.122-0.396,0.017c-0.107-0.098-0.121-0.261-0.034-0.376l3.7-4.377c0.046-0.099,0.144-0.162,0.252-0.163h6.86
	c0.083,0.001,0.161,0.038,0.216,0.1l3.756,4.442c0.068,0.084,0.085,0.2,0.041,0.3c-0.045,0.098-0.143,0.162-0.252,0.163h-1.119
	v4.381h1.1c0.076-0.002,0.148,0.029,0.199,0.084c0.106,0.109,0.106,0.283,0,0.393c-0.052,0.054-0.124,0.084-0.199,0.084H4.423
	L4.432,16.684z M7.974,16.105h1.209v-3.55H7.974V16.105z M18.618,11.191l-3.284-3.882H9.216l3.285,3.882H18.618z M13.588,15.223
	c-0.076,0.003-0.149-0.028-0.2-0.084c-0.054-0.053-0.084-0.125-0.084-0.2v-1.932c-0.002-0.076,0.028-0.148,0.084-0.2
	c0.053-0.054,0.125-0.084,0.2-0.084h2.44c0.075-0.002,0.148,0.028,0.2,0.084c0.053,0.053,0.08,0.125,0.078,0.2v1.938
	c0.002,0.074-0.025,0.146-0.078,0.2s-0.125,0.084-0.2,0.084L13.588,15.223z M13.868,14.664h1.88v-1.377h-1.88V14.664z
	 M13.111,10.245c-0.155,0-0.28-0.126-0.279-0.281s0.125-0.279,0.279-0.279h3.4c0.152,0,0.275,0.124,0.275,0.275
	c0,0.152-0.123,0.275-0.275,0.275h-3.4V10.245z M11.791,8.78c-0.075,0.001-0.147-0.027-0.2-0.079
	c-0.054-0.053-0.084-0.125-0.084-0.2c-0.002-0.076,0.028-0.148,0.084-0.2c0.053-0.052,0.125-0.081,0.2-0.079h3.4
	c0.155,0.001,0.28,0.126,0.279,0.281c-0.001,0.154-0.126,0.278-0.279,0.279h-3.4V8.78z"/>
</svg>
