<?xml version="1.0" encoding="utf-8"?>
<!-- Generator: Adobe Illustrator 15.0.0, SVG Export Plug-In . SVG Version: 6.00 Build 0)  -->
<!DOCTYPE svg PUBLIC "-//W3C//DTD SVG 1.1//EN" "http://www.w3.org/Graphics/SVG/1.1/DTD/svg11.dtd">
<svg version="1.1" id="矢印ボタン" xmlns="http://www.w3.org/2000/svg" xmlns:xlink="http://www.w3.org/1999/xlink" x="0px"
	 y="0px" width="20px" height="20px" viewBox="0 0 20 20" enable-background="new 0 0 20 20" xml:space="preserve">
<path id="パス_46327" fill="#719519" d="M10,1c-4.971,0-9,4.029-9,9s4.029,9,9,9s9-4.029,9-9c0.02-2.177-0.771-4.285-2.215-5.914
	C15.064,2.14,12.598,1.018,10,1 M10,0c2.874,0.017,5.605,1.252,7.516,3.4C19.137,5.214,20.022,7.567,20,10c0,5.523-4.477,10-10,10
	C4.477,20,0,15.523,0,10C0,4.477,4.477,0,10,0z"/>
<path id="多角形_6" fill="#719519" d="M12.906,8.584c0.506,0.222,0.736,0.811,0.515,1.317c-0.101,0.23-0.284,0.414-0.515,0.515
	L8.4,12.387c-0.506,0.221-1.096-0.01-1.316-0.516C7.028,11.744,7,11.608,7,11.471V7.529c0-0.552,0.448-1,1-0.999
	c0.138,0,0.273,0.028,0.399,0.083L12.906,8.584z"/>
</svg>
