<?xml version="1.0" encoding="utf-8"?>
<!-- Generator: Adobe Illustrator 15.0.0, SVG Export Plug-In  -->
<!DOCTYPE svg PUBLIC "-//W3C//DTD SVG 1.1//EN" "http://www.w3.org/Graphics/SVG/1.1/DTD/svg11.dtd" [
	<!ENTITY ns_flows "http://ns.adobe.com/Flows/1.0/">
]>
<svg version="1.1"
	 xmlns="http://www.w3.org/2000/svg" xmlns:xlink="http://www.w3.org/1999/xlink" xmlns:a="http://ns.adobe.com/AdobeSVGViewerExtensions/3.0/"
	 x="0px" y="0px" width="32px" height="32px" viewBox="-4 -5.001 32 32" enable-background="new -4 -5.001 32 32"
	 xml:space="preserve">
<defs>
</defs>
<path id="パス_364_2_" fill="#94C618" d="M7.513,9.938c-0.155,0-0.28-0.126-0.279-0.281c0-0.154,0.125-0.279,0.279-0.279h1.232
	V4.599c0.001-0.153,0.126-0.276,0.279-0.275c0,0,0,0,0.001,0c0.153,0,0.277,0.122,0.28,0.275v4.778h1.19v-3.85
	c-0.002-0.074,0.026-0.146,0.079-0.2c0.053-0.054,0.125-0.084,0.2-0.084h1.758c0.076-0.002,0.149,0.028,0.201,0.084
	c0.052,0.053,0.08,0.125,0.078,0.2v3.85h7.808V4.999h-5.171c-0.082-0.001-0.16-0.038-0.215-0.1l-3.542-4.19l-3.542,4.19
	C8.045,5.013,7.868,5.021,7.754,4.916C7.647,4.818,7.633,4.655,7.721,4.54l3.7-4.377C11.466,0.065,11.564,0.001,11.672,0h6.859
	c0.084,0.001,0.162,0.038,0.216,0.1l3.756,4.442c0.069,0.084,0.085,0.2,0.042,0.3C22.5,4.94,22.402,5.003,22.293,5.005h-1.12v4.382
	h1.101c0.075-0.002,0.148,0.028,0.199,0.084c0.105,0.109,0.105,0.282,0,0.392c-0.053,0.054-0.125,0.084-0.199,0.084H7.503
	L7.513,9.938z M11.055,9.359h1.209v-3.55h-1.209V9.359z M21.698,4.445l-3.284-3.882h-6.117l3.285,3.882H21.698z M16.668,8.477
	c-0.076,0.002-0.148-0.028-0.2-0.084c-0.054-0.053-0.084-0.125-0.084-0.2V6.261c-0.003-0.076,0.028-0.149,0.084-0.2
	c0.053-0.054,0.125-0.084,0.2-0.084h2.439c0.076-0.002,0.148,0.028,0.201,0.084c0.052,0.053,0.08,0.125,0.078,0.2v1.938
	c0.002,0.075-0.026,0.146-0.078,0.2c-0.053,0.054-0.125,0.084-0.201,0.084L16.668,8.477z M16.948,7.917h1.881V6.54h-1.881V7.917z
	 M16.192,3.499c-0.155,0-0.279-0.126-0.279-0.281s0.125-0.279,0.279-0.279h3.399c0.152,0,0.276,0.124,0.276,0.275
	c0,0.152-0.124,0.275-0.276,0.275h-3.399V3.499z M14.871,2.034c-0.075,0.001-0.147-0.027-0.2-0.079
	c-0.054-0.053-0.084-0.125-0.084-0.2c-0.002-0.076,0.028-0.148,0.084-0.2c0.053-0.053,0.125-0.081,0.2-0.079h3.399
	c0.155,0,0.28,0.126,0.279,0.281c0,0.154-0.125,0.279-0.279,0.279h-3.399V2.034z"/>
<path fill="#94C618" d="M23.792,12.927c-0.248-0.898-1.177-1.426-2.075-1.178l-4.928,1.353c-0.054-0.531-0.383-1.007-0.9-1.212
	c-1.957-0.747-6.846-2.098-10.78,1.02L4.88,12.421c-0.057-0.135-0.169-0.238-0.309-0.285c-0.137-0.052-0.29-0.046-0.423,0.016
	l-1.569,0.732l-0.08-0.17c-0.057-0.135-0.17-0.238-0.309-0.285c-0.137-0.052-0.29-0.046-0.423,0.016L0.32,13.12
	c-0.135,0.057-0.239,0.17-0.285,0.309c-0.052,0.138-0.046,0.29,0.016,0.424l3.5,7.463c0.086,0.199,0.283,0.328,0.5,0.326
	c0.074-0.003,0.146-0.014,0.217-0.033c0-0.004,0.003-0.008,0.008-0.008l1.455-0.683c0.001-0.001,0.001-0.001,0.002-0.001
	c0.275-0.129,0.394-0.455,0.266-0.73l-0.078-0.166l1.561-0.729c0.277-0.131,0.397-0.461,0.268-0.74l-0.253-0.54l1.215-0.479
	c0.937-0.37,1.973-0.408,2.934-0.108l1.407,0.447c1.129,0.351,2.347,0.284,3.432-0.187l6.357-2.756
	c0.415-0.186,0.739-0.527,0.9-0.951C23.871,13.642,23.888,13.272,23.792,12.927z M5.495,20.413l-1.447,0.684L4.04,21.088l-3.5-7.464
	c0-0.004,0.003-0.008,0.008-0.008l1.447-0.684c0.008,0,0.008,0,0.008,0.008l3.5,7.465L5.495,20.413z M7.254,18.787l-1.568,0.731
	l-2.879-6.147l1.569-0.731l0.008,0.008l2.878,6.131L7.254,18.787z M22.612,14.433l-6.365,2.748
	c-0.965,0.414-2.045,0.472-3.049,0.162l-1.407-0.447c-1.077-0.338-2.237-0.295-3.285,0.123l-1.243,0.49l-1.918-4.098
	c3.728-3.054,8.467-1.738,10.342-1.016c0.383,0.147,0.607,0.532,0.569,0.936c-0.017,0.03-0.008,0.068-0.013,0.103
	c-0.052,0.228-0.183,0.431-0.377,0.563c-0.207,0.142-0.463,0.191-0.707,0.138l-2.846-0.618c-0.146-0.033-0.293,0.058-0.326,0.203
	c-0.034,0.146,0.058,0.293,0.203,0.326l2.847,0.618c0.101,0.022,0.205,0.034,0.31,0.032c0.292-0.004,0.578-0.088,0.825-0.245
	c0.278-0.184,0.474-0.461,0.569-0.776l5.115-1.406c0.545-0.148,1.117,0.121,1.351,0.635c0.003,0.006,0.005,0.012,0.008,0.018
	C23.465,13.505,23.196,14.181,22.612,14.433z"/>
</svg>
