<?xml version="1.0" encoding="utf-8"?>
<!-- Generator: Adobe Illustrator 15.0.0, SVG Export Plug-In  -->
<!DOCTYPE svg PUBLIC "-//W3C//DTD SVG 1.1//EN" "http://www.w3.org/Graphics/SVG/1.1/DTD/svg11.dtd" [
	<!ENTITY ns_flows "http://ns.adobe.com/Flows/1.0/">
]>
<svg version="1.1"
	 xmlns="http://www.w3.org/2000/svg" xmlns:xlink="http://www.w3.org/1999/xlink" xmlns:a="http://ns.adobe.com/AdobeSVGViewerExtensions/3.0/"
	 x="0px" y="0px" width="26px" height="26px" viewBox="-0.123 -3.307 26 26" enable-background="new -0.123 -3.307 26 26"
	 xml:space="preserve">
<defs>
</defs>
<path fill="#32342D" d="M25.785,1.701C25.783,0.762,25.022,0.002,24.084,0H24.08H1.704H1.7C0.763,0.002,0.002,0.762,0,1.701v15.836
	c0.002,0.938,0.763,1.697,1.7,1.699h22.38c0.938-0.002,1.699-0.762,1.699-1.701V4.95l0.006-0.003V1.701z M1.423,1.701
	c0-0.076,0.032-0.142,0.08-0.192C1.554,1.458,1.624,1.427,1.7,1.427h22.38c0.076,0,0.144,0.031,0.195,0.081
	c0.048,0.05,0.078,0.117,0.08,0.193v2.473l-11.022,7.118c-0.273,0.154-0.606,0.154-0.878,0h-0.008L1.423,4.174V1.701z
	 M24.362,17.542c-0.001,0.155-0.126,0.281-0.282,0.281H1.7c-0.154,0-0.28-0.126-0.28-0.281V5.859l10.276,6.633l0.021,0.015
	c0.354,0.211,0.76,0.323,1.173,0.321H12.9c0.412,0,0.818-0.112,1.173-0.323l10.289-6.641V17.542z"/>
</svg>
