<?xml version="1.0" encoding="utf-8"?>
<!-- Generator: Adobe Illustrator 15.0.0, SVG Export Plug-In  -->
<!DOCTYPE svg PUBLIC "-//W3C//DTD SVG 1.1//EN" "http://www.w3.org/Graphics/SVG/1.1/DTD/svg11.dtd" [
	<!ENTITY ns_flows "http://ns.adobe.com/Flows/1.0/">
]>
<svg version="1.1"
	 xmlns="http://www.w3.org/2000/svg" xmlns:xlink="http://www.w3.org/1999/xlink" xmlns:a="http://ns.adobe.com/AdobeSVGViewerExtensions/3.0/"
	 x="0px" y="0px" width="32px" height="32px" viewBox="-1.481 -8.854 32 32" enable-background="new -1.481 -8.854 32 32"
	 xml:space="preserve">
<defs>
</defs>
<path id="パス_52_1_" fill="#94C618" stroke="#93C519" stroke-width="0.25" d="M28.885,13.677l-3.563-8.279
	c-0.047-0.107-0.153-0.178-0.271-0.179H14.839V4.282h0.541V3.69h-0.541v-1.2h0.541V1.899h-0.541V0.621l-0.324-0.417L14.19,0.621
	v1.279h-1.685V0.621L12.18,0.204l-0.325,0.417v1.279h-1.69V0.621L9.84,0.204L9.515,0.621v1.279H7.829V0.621L7.504,0.204L7.179,0.621
	v1.279H5.493V0.621L5.168,0.204L4.843,0.621v1.279H4.365v0.591h0.478v1.2H4.365v0.591h0.478v0.937H3.981
	C3.863,5.22,3.757,5.29,3.71,5.397l-3.563,8.279c-0.062,0.153,0.013,0.328,0.167,0.391c0.033,0.014,0.069,0.02,0.104,0.021h28.191
	c0.166-0.004,0.297-0.143,0.293-0.308c-0.001-0.036-0.008-0.071-0.021-0.104H28.885z M14.19,5.22h-1.685V4.283h1.686L14.19,5.22z
	 M7.833,5.22V4.283h1.686V5.22H7.833z M10.169,4.283h1.686V5.22h-1.69L10.169,4.283z M14.191,2.49v1.2h-1.686v-1.2H14.191z
	 M11.855,2.49v1.2h-1.69v-1.2H11.855z M9.519,2.49v1.2H7.833v-1.2H9.519z M5.497,2.504V2.49h1.686v1.2H5.497V2.504z M5.497,4.284
	h1.686v0.937H5.497V4.284z M0.871,13.499L4.18,5.811h20.677l3.309,7.688H0.871z"/>
<path id="パス_53_1_" fill="#94C618" stroke="#93C519" stroke-width="0.25" d="M8.154,10.675H6.212
	c-0.163-0.029-0.319,0.078-0.35,0.241c-0.03,0.163,0.078,0.319,0.241,0.35c0.036,0.007,0.073,0.007,0.109,0h1.942
	c0.163,0.03,0.32-0.077,0.35-0.241c0.03-0.162-0.078-0.318-0.24-0.35C8.227,10.669,8.19,10.669,8.154,10.675z"/>
<path id="パス_54_1_" fill="#94C618" stroke="#93C519" stroke-width="0.25" d="M9.487,10.858
	c-0.008-0.018-0.017-0.035-0.027-0.051c-0.011-0.016-0.023-0.031-0.037-0.045c-0.117-0.111-0.3-0.111-0.418,0
	c-0.014,0.014-0.026,0.029-0.037,0.045s-0.02,0.033-0.027,0.051c-0.007,0.018-0.012,0.037-0.016,0.055
	c-0.003,0.02-0.005,0.039-0.006,0.059c0.001,0.078,0.032,0.152,0.087,0.208c0.117,0.112,0.302,0.112,0.418,0
	c0.055-0.056,0.086-0.13,0.087-0.208c0-0.02-0.001-0.039-0.006-0.059C9.501,10.895,9.495,10.876,9.487,10.858z"/>
<path id="パス_55_1_" fill="#94C618" stroke="#93C519" stroke-width="0.25" d="M15.352,8.225h-1.945
	c-0.164-0.028-0.319,0.081-0.348,0.243c-0.028,0.164,0.081,0.319,0.244,0.348c0.034,0.006,0.069,0.006,0.104,0h1.942
	c0.163,0.029,0.318-0.08,0.348-0.244c0.028-0.162-0.081-0.318-0.244-0.347c-0.034-0.006-0.069-0.006-0.104,0H15.352z"/>
<path id="パス_56_1_" fill="#94C618" stroke="#93C519" stroke-width="0.25" d="M16.685,8.407
	c-0.008-0.018-0.018-0.034-0.027-0.051c-0.012-0.016-0.023-0.031-0.037-0.045s-0.029-0.025-0.045-0.037
	c-0.016-0.01-0.033-0.02-0.051-0.027c-0.018-0.006-0.037-0.012-0.056-0.016c-0.097-0.019-0.196,0.012-0.267,0.08
	c-0.013,0.014-0.025,0.029-0.037,0.045c-0.01,0.017-0.019,0.033-0.026,0.051c-0.007,0.019-0.013,0.037-0.017,0.057
	c-0.004,0.019-0.006,0.037-0.006,0.057c0.001,0.078,0.032,0.152,0.088,0.208c0.055,0.056,0.13,0.087,0.209,0.087
	c0.039-0.001,0.077-0.008,0.113-0.021c0.018-0.008,0.035-0.018,0.051-0.027c0.016-0.012,0.031-0.023,0.045-0.037
	c0.056-0.055,0.086-0.13,0.088-0.208c0-0.019-0.002-0.038-0.006-0.058C16.7,8.444,16.693,8.426,16.685,8.407z"/>
<path id="パス_57_1_" fill="#94C618" stroke="#93C519" stroke-width="0.25" d="M22.551,10.675h-1.942
	c-0.162-0.029-0.319,0.078-0.35,0.241c-0.029,0.163,0.078,0.319,0.24,0.35c0.037,0.007,0.074,0.007,0.109,0h1.942
	c0.163,0.03,0.319-0.077,0.349-0.241c0.031-0.162-0.077-0.318-0.24-0.35C22.625,10.669,22.587,10.669,22.551,10.675z"/>
<path id="パス_58_1_" fill="#94C618" stroke="#93C519" stroke-width="0.25" d="M23.884,10.859
	c-0.008-0.018-0.018-0.034-0.027-0.051c-0.011-0.017-0.023-0.031-0.037-0.046c-0.014-0.014-0.029-0.025-0.045-0.036
	s-0.033-0.021-0.051-0.026c-0.055-0.024-0.114-0.031-0.172-0.019c-0.019,0.005-0.037,0.011-0.055,0.019
	c-0.018,0.006-0.035,0.016-0.051,0.026s-0.031,0.023-0.045,0.036c-0.014,0.015-0.025,0.029-0.037,0.046
	c-0.01,0.017-0.019,0.033-0.027,0.051c-0.006,0.019-0.012,0.036-0.016,0.056c-0.004,0.019-0.006,0.037-0.006,0.057
	c0.001,0.078,0.032,0.153,0.087,0.209c0.056,0.055,0.13,0.086,0.208,0.087c0.039,0.001,0.078-0.007,0.114-0.022
	c0.019-0.006,0.035-0.016,0.051-0.027c0.017-0.01,0.031-0.022,0.046-0.036c0.055-0.056,0.086-0.13,0.086-0.208
	c0-0.02-0.002-0.039-0.006-0.059S23.892,10.878,23.884,10.859z"/>
</svg>
