<?xml version="1.0" encoding="utf-8"?>
<!-- Generator: Adobe Illustrator 15.0.0, SVG Export Plug-In  -->
<!DOCTYPE svg PUBLIC "-//W3C//DTD SVG 1.1//EN" "http://www.w3.org/Graphics/SVG/1.1/DTD/svg11.dtd" [
	<!ENTITY ns_flows "http://ns.adobe.com/Flows/1.0/">
]>
<svg version="1.1"
	 xmlns="http://www.w3.org/2000/svg" xmlns:xlink="http://www.w3.org/1999/xlink" xmlns:a="http://ns.adobe.com/AdobeSVGViewerExtensions/3.0/"
	 x="0px" y="0px" width="32px" height="32px" viewBox="-2.815 -6.18 32 32" enable-background="new -2.815 -6.18 32 32"
	 xml:space="preserve">
<defs>
</defs>
<path id="パス_363_1_" fill="#94C618" d="M0.482,19.642C0.216,19.642,0,19.427,0,19.161c0.001-0.266,0.216-0.481,0.482-0.481H1.9
	V6.998c0.004-0.197,0.124-0.374,0.305-0.45L7.46,4.467V0.474C7.459,0.348,7.508,0.227,7.597,0.137C7.687,0.048,7.808-0.001,7.934,0
	h7.681c0.109-0.002,0.215,0.033,0.301,0.1h0.008c0-0.008,2.199,1.6,2.199,1.6c0.123,0.091,0.193,0.234,0.193,0.386v2.226h3.5
	c0.105,0,0.207,0.035,0.289,0.1L24.3,6.016c0.119,0.091,0.189,0.232,0.189,0.382v12.27h1.41c0.264,0,0.477,0.215,0.475,0.479
	c0,0.125-0.05,0.244-0.138,0.333c-0.089,0.091-0.21,0.144-0.337,0.146H0.482V19.642z M23.535,18.687V6.659L22.3,5.751v12.936H23.535
	z M21.341,18.687v-13.4h-5.223v13.4H21.341z M15.13,18.687V0.97H8.4v17.717H15.13z M7.449,18.687V5.51l-4.6,1.824v11.353H7.449z
	 M17.356,4.321V2.336l-1.261-0.924v2.909H17.356z M4.34,15.673c-0.126,0.002-0.247-0.048-0.337-0.137
	c-0.091-0.089-0.143-0.211-0.145-0.338v-1.824c-0.001-0.127,0.051-0.25,0.145-0.336c0.09-0.09,0.211-0.139,0.337-0.138h1.631
	c0.126-0.001,0.247,0.048,0.337,0.138c0.089,0.089,0.138,0.21,0.137,0.336v1.823c0.001,0.126-0.048,0.248-0.137,0.338
	c-0.09,0.089-0.211,0.138-0.337,0.138H4.34z M4.822,14.71H5.5v-0.861H4.825L4.822,14.71z M13.733,15.24h-0.289
	c-0.129,0-0.253-0.051-0.344-0.143c-0.089-0.089-0.138-0.211-0.137-0.336c-0.001-0.129,0.051-0.25,0.145-0.338
	c0.09-0.088,0.211-0.138,0.337-0.137h0.289c0.26,0.002,0.469,0.215,0.467,0.475c0,0.002,0,0.005,0,0.008
	c-0.001,0.262-0.213,0.473-0.475,0.474l0,0L13.733,15.24z M11.821,15.232H11.53c-0.127-0.002-0.249-0.055-0.337-0.145
	c-0.088-0.09-0.138-0.211-0.137-0.338c-0.002-0.127,0.051-0.25,0.145-0.336c0.089-0.09,0.211-0.139,0.337-0.138h0.289
	c0.259,0.002,0.468,0.214,0.466,0.474c0,0.003,0,0.006,0,0.008c0,0.262-0.212,0.475-0.474,0.475l0,0H11.821z M9.901,15.224H9.644
	c-0.261,0.001-0.473-0.209-0.474-0.471c0-0.004,0-0.008,0-0.012c-0.001-0.26,0.209-0.473,0.47-0.475c0.004,0,0.008,0,0.012,0.001
	h0.257c0.259,0.002,0.468,0.214,0.466,0.474c0,0.003,0,0.006,0,0.008C10.375,15.011,10.163,15.223,9.901,15.224z M20.185,15.125
	l-2.957-0.017c-0.128,0.001-0.25-0.052-0.337-0.146c-0.089-0.09-0.138-0.211-0.138-0.336c-0.001-0.129,0.052-0.251,0.146-0.338
	c0.09-0.088,0.211-0.138,0.337-0.137l2.957,0.016l0,0c0.26,0.002,0.469,0.215,0.467,0.475c0,0.002,0,0.005,0,0.008
	C20.659,14.912,20.447,15.124,20.185,15.125L20.185,15.125z M20.185,11.669l-2.957-0.017c-0.128,0.002-0.25-0.051-0.337-0.146
	c-0.089-0.09-0.138-0.211-0.138-0.336c-0.002-0.129,0.051-0.252,0.146-0.338c0.09-0.09,0.211-0.139,0.337-0.138l2.957,0.017l0,0
	c0.26,0.002,0.469,0.214,0.467,0.473c0,0.004,0,0.006,0,0.009c-0.001,0.262-0.213,0.474-0.475,0.474l0,0V11.669z M13.733,11.589
	h-0.289c-0.127-0.002-0.248-0.055-0.337-0.146c-0.089-0.09-0.138-0.212-0.137-0.338c-0.002-0.128,0.051-0.251,0.145-0.337
	c0.089-0.089,0.21-0.139,0.337-0.137h0.289c0.259,0.002,0.468,0.214,0.465,0.473c0,0.004,0,0.006,0,0.009
	c0,0.262-0.212,0.474-0.474,0.474l0,0V11.589z M11.821,11.582H11.53c-0.261,0-0.473-0.21-0.474-0.471c0-0.004,0-0.008,0-0.012
	c-0.001-0.261,0.209-0.473,0.47-0.475c0.004,0,0.008,0,0.012,0h0.289c0.259,0.002,0.468,0.215,0.466,0.475c0,0.002,0,0.005,0,0.008
	c0,0.262-0.212,0.473-0.474,0.475l0,0H11.821z M9.901,11.573H9.644c-0.261,0.001-0.473-0.209-0.474-0.47c0-0.004,0-0.008,0-0.012
	c-0.001-0.262,0.209-0.473,0.47-0.475c0.004,0,0.008,0,0.012,0h0.257c0.259,0.002,0.468,0.215,0.466,0.475c0,0.002,0,0.005,0,0.008
	C10.375,11.361,10.163,11.572,9.901,11.573z M4.341,11.548C4.215,11.55,4.094,11.5,4.004,11.412
	c-0.091-0.088-0.143-0.209-0.145-0.337V9.251C3.857,9.123,3.91,9,4.004,8.913c0.089-0.091,0.21-0.144,0.337-0.145h1.631
	C6.1,8.766,6.223,8.819,6.309,8.913C6.4,9.002,6.453,9.124,6.454,9.251v1.824c0.001,0.128-0.051,0.251-0.145,0.337
	c-0.09,0.089-0.211,0.139-0.337,0.137H4.341z M4.823,10.585H5.5v-0.86H4.825L4.823,10.585z M20.185,8.118l-2.957-0.016
	c-0.128,0.001-0.25-0.051-0.337-0.145c-0.089-0.09-0.138-0.211-0.138-0.337c-0.002-0.128,0.051-0.251,0.146-0.338
	c0.09-0.088,0.211-0.138,0.337-0.137l2.957,0.016l0,0c0.26,0.002,0.469,0.214,0.467,0.474c0,0.003,0,0.005,0,0.008
	c-0.001,0.261-0.213,0.473-0.475,0.474l0,0V8.118z M13.733,8.046h-0.289c-0.127-0.002-0.248-0.054-0.337-0.145
	c-0.088-0.09-0.138-0.211-0.137-0.337c-0.002-0.128,0.051-0.25,0.145-0.337c0.089-0.089,0.21-0.138,0.337-0.137h0.289
	C14,7.092,14.209,7.304,14.207,7.563c0,0.003,0,0.006,0,0.008C14.207,7.833,13.995,8.045,13.733,8.046L13.733,8.046z M11.821,8.038
	H11.53c-0.261,0.001-0.473-0.209-0.474-0.47c0-0.004,0-0.008,0-0.012c-0.001-0.26,0.209-0.473,0.47-0.474c0.004,0,0.008,0,0.012,0
	h0.289c0.259,0.002,0.468,0.214,0.466,0.474c0,0.003,0,0.005,0,0.008c0,0.261-0.212,0.473-0.474,0.474l0,0H11.821z M9.901,8.03
	H9.644C9.383,8.031,9.171,7.821,9.17,7.56c0-0.004,0-0.008,0-0.012C9.169,7.287,9.379,7.075,9.64,7.074c0.004,0,0.008,0,0.012,0
	h0.257c0.259,0.002,0.468,0.214,0.466,0.474c0,0.002,0,0.005,0,0.008C10.375,7.817,10.163,8.029,9.901,8.03z M13.731,4.398h-0.289
	c-0.127-0.002-0.248-0.054-0.337-0.145c-0.089-0.09-0.138-0.212-0.137-0.338c-0.002-0.128,0.051-0.25,0.145-0.337
	c0.089-0.088,0.21-0.138,0.337-0.137h0.289c0.259,0.002,0.468,0.214,0.465,0.474c0,0.003,0,0.005,0,0.008
	C14.205,4.185,13.993,4.396,13.731,4.398L13.731,4.398L13.731,4.398z M11.819,4.39H11.53c-0.261,0.001-0.473-0.209-0.474-0.47
	c0-0.004,0-0.008,0-0.012c-0.001-0.261,0.209-0.473,0.47-0.474c0.004,0,0.008,0,0.012,0h0.289c0.259,0.002,0.468,0.214,0.466,0.474
	c0,0.002,0,0.005,0,0.008C12.292,4.177,12.081,4.389,11.819,4.39L11.819,4.39z M9.899,4.382H9.642
	c-0.261,0.001-0.473-0.209-0.474-0.47c0-0.004,0-0.008,0-0.012c-0.001-0.261,0.209-0.473,0.47-0.474c0.004,0,0.008,0,0.012,0h0.257
	c0.259,0.002,0.468,0.214,0.466,0.474c0,0.003,0,0.006,0,0.008C10.373,4.169,10.161,4.381,9.899,4.382z"/>
</svg>
