<?xml version="1.0" encoding="utf-8"?>
<!-- Generator: Adobe Illustrator 15.0.0, SVG Export Plug-In  -->
<!DOCTYPE svg PUBLIC "-//W3C//DTD SVG 1.1//EN" "http://www.w3.org/Graphics/SVG/1.1/DTD/svg11.dtd" [
	<!ENTITY ns_flows "http://ns.adobe.com/Flows/1.0/">
]>
<svg version="1.1"
	 xmlns="http://www.w3.org/2000/svg" xmlns:xlink="http://www.w3.org/1999/xlink" xmlns:a="http://ns.adobe.com/AdobeSVGViewerExtensions/3.0/"
	 x="0px" y="0px" width="32px" height="32px" viewBox="-2.893 -2.94 32 32" enable-background="new -2.893 -2.94 32 32"
	 xml:space="preserve">
<defs>
</defs>
<path id="パス_365_1_" fill="#94C618" d="M4.44,18.696c-0.184,0-0.333-0.148-0.333-0.334c0-0.184,0.149-0.332,0.333-0.332h1.467
	v-5.691c0.001-0.182,0.15-0.329,0.332-0.328c0,0,0.001,0,0.001,0c0.182,0,0.331,0.146,0.333,0.328v5.691H7.99v-4.586
	c0-0.087,0.033-0.171,0.094-0.233c0.062-0.063,0.145-0.099,0.233-0.1h2.1c0.088-0.001,0.173,0.035,0.233,0.1
	c0.061,0.062,0.095,0.146,0.094,0.233v4.586h9.301v-5.219h-6.158c-0.098-0.001-0.19-0.043-0.256-0.117l-4.217-4.99l-4.218,4.99
	c-0.118,0.141-0.328,0.16-0.469,0.042s-0.16-0.328-0.042-0.469l0,0l4.407-5.213c0.055-0.117,0.171-0.192,0.3-0.194h8.169
	c0.098,0.001,0.191,0.043,0.256,0.117l4.473,5.29c0.082,0.1,0.102,0.237,0.051,0.356c-0.055,0.117-0.172,0.193-0.301,0.195h-1.332
	v5.219h1.301c0.088-0.002,0.172,0.035,0.232,0.1c0.126,0.13,0.126,0.336,0,0.467c-0.062,0.063-0.145,0.099-0.232,0.1H4.429
	L4.44,18.696z M8.658,18.007h1.439v-4.229H8.658V18.007z M21.333,12.156l-3.912-4.624h-7.284l3.911,4.624H21.333z M15.343,16.956
	c-0.088,0-0.174-0.035-0.233-0.101c-0.063-0.062-0.099-0.146-0.101-0.233v-2.299c0-0.09,0.035-0.174,0.101-0.234
	c0.062-0.063,0.146-0.098,0.233-0.1h2.906c0.088-0.001,0.172,0.035,0.232,0.1c0.061,0.063,0.096,0.146,0.094,0.234v2.299
	c0.002,0.088-0.033,0.172-0.094,0.233c-0.062,0.063-0.145,0.099-0.232,0.101H15.343z M15.675,16.288h2.24v-1.639h-2.238
	L15.675,16.288z M14.776,11.025c-0.185,0-0.333-0.149-0.333-0.333c0-0.184,0.148-0.333,0.333-0.333h4.046
	c0.182,0,0.328,0.147,0.328,0.328s-0.146,0.328-0.328,0.328h-4.045L14.776,11.025z M13.203,9.281
	c-0.087,0.001-0.17-0.033-0.233-0.094c-0.063-0.062-0.099-0.145-0.1-0.233c-0.001-0.088,0.035-0.173,0.1-0.233
	c0.063-0.061,0.146-0.095,0.233-0.094h4.047c0.184,0,0.333,0.149,0.333,0.333s-0.149,0.333-0.333,0.333h-4.043L13.203,9.281z"/>
<path id="パス_317_1_" fill="#94C618" d="M22.355,3.8C17.464-1.037,9.672-1.287,4.481,3.226L4.742,2.39
	C4.814,2.115,4.65,1.834,4.376,1.763C4.102,1.69,3.821,1.854,3.749,2.128l0,0l-0.784,2.77c-0.043,0.181-0.007,0.372,0.1,0.523
	c0.099,0.095,0.229,0.151,0.366,0.157h0.1l2.4-0.47c0.287-0.064,0.467-0.35,0.403-0.637C6.271,4.194,6.002,4.014,5.722,4.063
	l-0.68,0.157C9.967-0.233,17.57,0.149,22.023,5.074c3.507,3.877,4.105,9.577,1.482,14.099c-0.146,0.252-0.061,0.576,0.192,0.723
	c0.005,0.003,0.011,0.006,0.017,0.01c0.08,0.041,0.17,0.06,0.261,0.051c0.188-0.012,0.36-0.107,0.47-0.26
	C27.391,14.528,26.537,8.031,22.355,3.8z"/>
<path id="パス_318_1_" fill="#94C618" d="M22.669,20.577l-2.4,0.469c-0.29,0.051-0.484,0.328-0.434,0.617
	c0.051,0.291,0.328,0.484,0.617,0.434c0.009-0.002,0.018-0.004,0.025-0.006l0.68-0.156c-4.752,4.252-11.991,4.07-16.524-0.414
	c-3.55-3.498-4.55-8.835-2.508-13.382c0.171-0.377,0.363-0.745,0.575-1.1c0.144-0.26,0.051-0.587-0.209-0.732
	C2.232,6.162,1.904,6.256,1.76,6.516c-0.209,0.366-0.418,0.784-0.627,1.2c-2.937,6.602,0.033,14.333,6.634,17.27
	c1.68,0.748,3.498,1.133,5.336,1.131c3.246-0.012,6.375-1.223,8.781-3.4l-0.156,0.68c-0.06,0.286,0.125,0.566,0.41,0.625
	c0.003,0.001,0.006,0.002,0.008,0.002h0.1c0.255,0.012,0.479-0.168,0.523-0.418l0.574-2.4c0.056-0.174-0.008-0.363-0.156-0.47
	c-0.156-0.099-0.338-0.153-0.523-0.157H22.669z"/>
</svg>
