<?xml version="1.0" encoding="utf-8"?>
<!-- Generator: Adobe Illustrator 15.0.0, SVG Export Plug-In  -->
<!DOCTYPE svg PUBLIC "-//W3C//DTD SVG 1.1//EN" "http://www.w3.org/Graphics/SVG/1.1/DTD/svg11.dtd" [
	<!ENTITY ns_flows "http://ns.adobe.com/Flows/1.0/">
]>
<svg version="1.1"
	 xmlns="http://www.w3.org/2000/svg" xmlns:xlink="http://www.w3.org/1999/xlink" xmlns:a="http://ns.adobe.com/AdobeSVGViewerExtensions/3.0/"
	 x="0px" y="0px" width="26px" height="26px" viewBox="0 0 26 26" enable-background="new 0 0 26 26" xml:space="preserve">
<defs>
</defs>
<path fill="#06C755" d="M20.022,25.851H5.828C2.609,25.851,0,23.241,0,20.022V5.828C0,2.609,2.609,0,5.828,0h14.195
	c3.219,0,5.828,2.609,5.828,5.828v14.195C25.851,23.241,23.241,25.851,20.022,25.851"/>
<path fill="#FFFFFF" d="M21.541,11.708c0-3.856-3.866-6.995-8.619-6.995c-4.752,0-8.618,3.138-8.618,6.995
	c0,3.458,3.065,6.353,7.208,6.9c0.28,0.061,0.662,0.186,0.759,0.426c0.087,0.218,0.057,0.559,0.028,0.779
	c0,0-0.101,0.607-0.123,0.737c-0.038,0.218-0.173,0.853,0.746,0.465c0.92-0.388,4.963-2.923,6.772-5.004h-0.001
	C20.942,14.641,21.541,13.251,21.541,11.708"/>
<path fill="#06C755" d="M18.674,13.935h-2.418h-0.003c-0.092,0-0.165-0.074-0.165-0.165v-0.002v-0.001v-3.754v0v-0.003
	c0-0.091,0.073-0.165,0.165-0.165h0.003h2.418c0.091,0,0.165,0.074,0.165,0.165v0.611c0,0.091-0.074,0.164-0.165,0.164h-1.646v0.635
	h1.646c0.091,0,0.165,0.074,0.165,0.165v0.611c0,0.09-0.074,0.165-0.165,0.165h-1.646v0.635h1.646c0.091,0,0.165,0.074,0.165,0.165
	v0.611C18.839,13.86,18.765,13.935,18.674,13.935"/>
<path fill="#06C755" d="M9.718,13.935c0.09,0,0.165-0.074,0.165-0.165v-0.611c0-0.091-0.075-0.165-0.165-0.165H8.072v-2.986
	c0-0.09-0.074-0.165-0.165-0.165H7.296c-0.091,0-0.165,0.074-0.165,0.165v3.758v0.001v0.002c0,0.091,0.073,0.165,0.165,0.165h0.002
	H9.718z"/>
<path fill="#06C755" d="M11.175,9.844h-0.611c-0.091,0-0.165,0.074-0.165,0.165v3.761c0,0.091,0.073,0.165,0.165,0.165h0.611
	c0.091,0,0.165-0.074,0.165-0.165v-3.761C11.34,9.917,11.266,9.844,11.175,9.844"/>
<path fill="#06C755" d="M15.336,9.844h-0.611c-0.091,0-0.164,0.074-0.164,0.165v2.234l-1.721-2.324
	c-0.004-0.006-0.009-0.012-0.013-0.017c0,0-0.001-0.001-0.001-0.001c-0.003-0.004-0.006-0.007-0.01-0.011l-0.003-0.002
	c-0.002-0.003-0.005-0.005-0.009-0.008l-0.004-0.003c-0.002-0.002-0.005-0.004-0.009-0.006c-0.001-0.001-0.003-0.002-0.005-0.003
	c-0.002-0.002-0.006-0.003-0.009-0.005c-0.001,0-0.003-0.001-0.005-0.002c-0.003-0.002-0.006-0.003-0.009-0.004
	c-0.002,0-0.004-0.001-0.005-0.002c-0.003-0.001-0.007-0.002-0.01-0.003c-0.002-0.001-0.004-0.001-0.006-0.002
	c-0.003,0-0.006-0.001-0.01-0.002c-0.002,0-0.005,0-0.007-0.001c-0.002,0-0.005,0-0.009-0.001c-0.002,0-0.005,0-0.009,0
	c-0.002,0-0.003,0-0.005,0h-0.608c-0.091,0-0.165,0.074-0.165,0.165v3.761c0,0.091,0.073,0.165,0.165,0.165h0.611
	c0.091,0,0.165-0.074,0.165-0.165v-2.233l1.723,2.327c0.012,0.017,0.026,0.03,0.042,0.042c0.001,0,0.001,0,0.002,0.001
	c0.003,0.002,0.007,0.004,0.011,0.006c0.001,0.001,0.003,0.002,0.005,0.003c0.003,0.001,0.005,0.003,0.008,0.004
	s0.005,0.002,0.009,0.004c0.001,0,0.003,0.001,0.004,0.001c0.005,0.002,0.008,0.003,0.012,0.004c0.001,0,0.002,0.001,0.003,0.001
	c0.013,0.004,0.027,0.006,0.043,0.006h0.607c0.092,0,0.165-0.074,0.165-0.165v-3.761C15.501,9.917,15.428,9.844,15.336,9.844"/>
</svg>
