<?xml version="1.0" encoding="utf-8"?>
<!-- Generator: Adobe Illustrator 15.0.0, SVG Export Plug-In  -->
<!DOCTYPE svg PUBLIC "-//W3C//DTD SVG 1.1//EN" "http://www.w3.org/Graphics/SVG/1.1/DTD/svg11.dtd" [
	<!ENTITY ns_flows "http://ns.adobe.com/Flows/1.0/">
]>
<svg version="1.1"
	 xmlns="http://www.w3.org/2000/svg" xmlns:xlink="http://www.w3.org/1999/xlink" xmlns:a="http://ns.adobe.com/AdobeSVGViewerExtensions/3.0/"
	 x="0px" y="0px" width="26px" height="26px" viewBox="-5.785 -2.386 26 26" enable-background="new -5.785 -2.386 26 26"
	 xml:space="preserve">
<defs>
</defs>
<path id="パス_46332_2_" fill="#32342D" d="M1.456,0.9C-0.003,1.847-0.29,4.804,0.26,7.21c0.57,2.402,1.543,4.69,2.879,6.766
	c1.363,2.056,3.054,3.877,5.003,5.388c1.977,1.486,4.797,2.431,6.254,1.485c0.75-0.549,1.389-1.234,1.885-2.021l-0.785-1.207
	L13.34,14.3c-0.16-0.247-1.164-0.021-1.676,0.269c-0.535,0.384-0.982,0.871-1.322,1.436c-0.471,0.273-0.865,0-1.691-0.379
	c-1.251-0.835-2.298-1.939-3.066-3.23c-0.868-1.229-1.449-2.636-1.701-4.117c-0.01-0.91-0.096-1.381,0.344-1.701
	c0.653-0.08,1.283-0.292,1.851-0.621c0.472-0.348,1.089-1.176,0.928-1.421L4.852,1.213L4.068,0C3.149,0.133,2.263,0.438,1.456,0.9z"
	/>
</svg>
